# xmcd
#
# Track frame offsets: 
#        150
#        14965
#        31687
#        49088
#        62762
#        82649
#        95093
#        117513
#        131085
#        149974
#        166862
#        182234
#        202527
#        217030
#        231798
#        251089
#        273292
#        294146
#        312686
#
# Disc length: 4564 seconds
#
# Revision: 4
# Processed by: cddbd v1.5.2PL0 Copyright (c) Steve Scherf et al.
# Submitted via: ExactAudioCopy v1.0b6
#
DISCID=1c11d213
DTITLE=Ilmārs Dzenis un Florīdieši - Lai dzīvo trešā jaunība!
DYEAR=2001
DGENRE=Country
TTITLE0=Lai dzīvo trešā jaunība!
TTITLE1=Zilās acis
TTITLE2=Cik dzīvē viss skaists!
TTITLE3=Lejā pie upītes
TTITLE4=Sirdssāpes
TTITLE5=Odi
TTITLE6=Vientuļais ozols
TTITLE7=Zūdi krūmos, aligātor!
TTITLE8=Liec, lai attālums zūd!
TTITLE9=Maijs
TTITLE10=Vannā sēžot
TTITLE11=Ziedonis
TTITLE12=Gulbenes-Alūksnes bānītis
TTITLE13=Neatstāj mani!
TTITLE14=Atgriezies!
TTITLE15=Kādēļ?
TTITLE16=Vot, ka cemme Zilupē!
TTITLE17=No manis neaizej!
TTITLE18=Karību dziesmu virkne
EXTD=
EXTT0=
EXTT1=
EXTT2=
EXTT3=
EXTT4=
EXTT5=
EXTT6=
EXTT7=
EXTT8=
EXTT9=
EXTT10=
EXTT11=
EXTT12=
EXTT13=
EXTT14=
EXTT15=
EXTT16=
EXTT17=
EXTT18=
PLAYORDER=
